<svg width="1280" height="720" xmlns="http://www.w3.org/2000/svg" xmlns:xlink="http://www.w3.org/1999/xlink" overflow="hidden"><defs><clipPath id="clip0"><rect x="0" y="0" width="1280" height="720"/></clipPath></defs><g clip-path="url(#clip0)"><rect x="0" y="0" width="1280" height="720" fill="#FFFFFF"/><path d="M347.5 56.5002C347.5 52.0818 351.082 48.5001 355.5 48.5001L483.5 48.5001C487.918 48.5001 491.5 52.0818 491.5 56.5002L491.5 88.4999C491.5 92.9183 487.918 96.5 483.5 96.5L355.5 96.5C351.082 96.5 347.5 92.9183 347.5 88.4999Z" stroke="#0D0D0D" stroke-width="1.33333" stroke-miterlimit="8" fill="#99FFCC" fill-rule="evenodd"/><text font-family="Calibri,Calibri_MSFontService,sans-serif" font-weight="400" font-size="24" transform="translate(379.553 80)">internet</text><path d="M347.5 344.5C347.5 340.082 351.082 336.5 355.5 336.5L483.5 336.5C487.918 336.5 491.5 340.082 491.5 344.5L491.5 376.5C491.5 380.918 487.918 384.5 483.5 384.5L355.5 384.5C351.082 384.5 347.5 380.918 347.5 376.5Z" stroke="#0D0D0D" stroke-width="1.33333" stroke-miterlimit="8" fill="#99FFCC" fill-rule="evenodd"/><text font-family="Calibri,Calibri_MSFontService,sans-serif" font-weight="400" font-size="24" transform="translate(388.153 356)">r<tspan font-size="24" x="7.94669" y="0">outer</tspan><tspan font-size="19" x="-13.1533" y="24">10.0.0.0/15</tspan></text><path d="M202.5 488.5C202.5 484.082 206.082 480.5 210.5 480.5L338.5 480.5C342.918 480.5 346.5 484.082 346.5 488.5L346.5 520.5C346.5 524.918 342.918 528.5 338.5 528.5L210.5 528.5C206.082 528.5 202.5 524.918 202.5 520.5Z" stroke="#0D0D0D" stroke-width="1.33333" stroke-miterlimit="8" fill="#99FFCC" fill-rule="evenodd"/><text font-family="Calibri,Calibri_MSFontService,sans-serif" font-weight="400" font-size="24" transform="translate(234.347 500)">subnet1<tspan font-size="19" x="-4.14667" y="24">10.0.0.0/16</tspan></text><path d="M490.5 488.5C490.5 484.082 494.082 480.5 498.5 480.5L626.5 480.5C630.918 480.5 634.5 484.082 634.5 488.5L634.5 520.5C634.5 524.918 630.918 528.5 626.5 528.5L498.5 528.5C494.082 528.5 490.5 524.918 490.5 520.5Z" stroke="#0D0D0D" stroke-width="1.33333" stroke-miterlimit="8" fill="#99FFCC" fill-rule="evenodd"/><text font-family="Calibri,Calibri_MSFontService,sans-serif" font-weight="400" font-size="24" transform="translate(522.747 500)">s<tspan font-size="24" x="9.33337" y="0">ubnet2</tspan><tspan font-size="19" x="-4.14667" y="24">10.1.0.0/16</tspan></text><path d="M203.5 632.5C203.5 628.082 207.082 624.5 211.5 624.5L339.5 624.5C343.918 624.5 347.5 628.082 347.5 632.5L347.5 664.5C347.5 668.918 343.918 672.5 339.5 672.5L211.5 672.5C207.082 672.5 203.5 668.918 203.5 664.5Z" stroke="#0D0D0D" stroke-width="1.33333" stroke-miterlimit="8" fill="#99FFCC" fill-rule="evenodd"/><text font-family="Calibri,Calibri_MSFontService,sans-serif" font-weight="400" font-size="24" transform="translate(238.34 644)">s<tspan font-size="24" x="9.33333" y="0">erver1</tspan><tspan font-size="19" x="5.73999" y="24">10.0.0.1</tspan></text><path d="M491.5 632.5C491.5 628.082 495.082 624.5 499.5 624.5L627.5 624.5C631.918 624.5 635.5 628.082 635.5 632.5L635.5 664.5C635.5 668.918 631.918 672.5 627.5 672.5L499.5 672.5C495.082 672.5 491.5 668.918 491.5 664.5Z" stroke="#0D0D0D" stroke-width="1.33333" stroke-miterlimit="8" fill="#99FFCC" fill-rule="evenodd"/><text font-family="Calibri,Calibri_MSFontService,sans-serif" font-weight="400" font-size="24" transform="translate(526.34 656)">server2</text><path d="M10-2 17.6327-2 25.7654-1.93744 25.75-1.9375 33.0102-1.9375 39.1454-1.8749 39.125-1.875 41.7161-1.875 43.9321-1.81168 43.875-1.8125 45.625-1.8125 47.0143-1.8125 47.9034-1.74411 47.75-1.75 48-1.75 48.3268-1.75 49.2159-1.68161 49.0625-1.6875 50.375-1.6875 52.1536-1.6875 54.3696-1.62418 54.3125-1.625 56.8852-1.625 63.0204-1.5624 63-1.5625 70.2577-1.5625 78.3904-1.49994 78.375-1.5 86-1.5 86 2.5 78.3673 2.5 70.2346 2.43744 70.25 2.4375 62.9898 2.4375 56.8546 2.3749 56.875 2.375 54.2839 2.375 52.0679 2.31168 52.125 2.3125 50.375 2.3125 48.9857 2.3125 48.0966 2.24411 48.25 2.25 48 2.25 47.6732 2.25 46.7841 2.18161 46.9375 2.1875 45.625 2.1875 43.8464 2.1875 41.6304 2.12418 41.6875 2.125 39.1148 2.125 32.9796 2.0624 33 2.0625 25.7423 2.0625 17.6096 1.99994 17.625 2 10 2ZM12 6 0 0 12-6ZM84-5.5 96 0.5 84 6.5Z" fill="#4472C4" transform="matrix(1.83697e-16 1 1 -1.83697e-16 419 95.9999)"/><path d="M634.011 502.004 637.074 501.816 636.804 501.851 639.929 501.226 639.7 501.286 642.763 500.286 642.534 500.377 645.596 498.94 645.369 499.065 651.431 495.19 651.176 495.384 657.051 490.134 656.878 490.308 662.566 483.808 662.438 483.97 667.876 476.283 667.788 476.418 672.975 467.668 672.905 467.798 677.717 458.11 677.666 458.221 682.104 447.721 682.06 447.833 686.06 436.521 686.027 436.622 689.527 424.747 689.502 424.844 692.502 412.406 692.481 412.503 694.918 399.628 694.901 399.736 696.651 386.611 696.64 386.707 697.765 373.332 697.759 373.444 698.134 359.944 698.135 360.092 697.823 353.342 697.837 353.507 696.962 346.757 696.994 346.938 695.494 340.25 695.53 340.386 693.53 333.698 693.581 333.846 691.018 327.221 691.081 327.367 687.956 320.867 688.005 320.961 684.442 314.461 684.509 314.575 680.447 308.2 680.51 308.294 676.01 302.044 676.07 302.122 671.133 295.935 671.206 296.022 665.831 290.022 665.899 290.094 660.087 284.219 660.147 284.278 653.959 278.528 654.021 278.582 647.521 273.02 647.624 273.103 633.562 262.603 633.689 262.69 618.377 253.003 618.503 253.076 602.128 244.326 602.257 244.389 585.007 236.702 585.144 236.757 567.081 230.257 567.217 230.3 548.53 225.05 548.674 225.085 529.549 221.21 529.652 221.228 519.965 219.791 520.053 219.802 510.366 218.802 510.459 218.809 500.83 218.269 501.054 214.275 510.73 214.818 520.508 215.828 530.291 217.279 549.541 221.18 568.368 226.469 586.568 233.018 603.95 240.765 620.453 249.583 635.893 259.351 650.071 269.937 656.652 275.57 662.901 281.376 668.777 287.316 674.224 293.395 679.228 299.666 683.79 306.002 687.918 312.481 691.538 319.085 694.72 325.705 697.339 332.477 699.382 339.307 700.917 346.152 701.815 353.075 702.135 359.982 701.756 373.612 700.622 387.091 698.859 400.318 696.402 413.296 693.378 425.83 689.849 437.804 685.811 449.223 681.327 459.835 676.454 469.644 671.188 478.527 665.644 486.364 659.808 493.034 653.721 498.474 647.413 502.505 644.121 504.05 640.829 505.125 637.454 505.8 634.256 505.996ZM502.778 222.324 490.946 216 503.105 210.329Z" fill="#FF0000"/><path d="M418.337 394.352 417.059 398.171 414.189 402.776 410.808 407.068 406.797 411.208 402.286 415.074 397.282 418.668 391.837 421.998 386.02 424.939 379.899 427.553 373.518 429.786 366.945 431.573 360.177 432.914 353.269 433.746 346.437 433.999 339.687 434.249 339.852 434.236 333.102 435.048 333.251 435.024 326.626 436.337 326.762 436.305 320.325 438.055 320.461 438.013 314.211 440.2 314.336 440.152 308.336 442.714 308.46 442.656 302.835 445.531 302.969 445.456 297.656 448.706 297.779 448.625 292.904 452.125 293.039 452.018 288.664 455.768 288.799 455.642 284.924 459.642 285.058 459.488 281.808 463.613 281.935 463.433 279.247 467.745 279.447 467.322 278.243 470.917 274.45 469.648 275.728 465.829 278.598 461.224 281.98 456.932 285.991 452.792 290.501 448.926 295.506 445.332 300.947 442.004 306.701 439.063 312.826 436.447 319.207 434.214 325.78 432.427 332.548 431.086 339.456 430.254 346.288 430.001 353.038 429.751 352.873 429.764 359.623 428.952 359.474 428.976 366.099 427.663 365.963 427.695 372.4 425.945 372.264 425.987 378.514 423.8 378.389 423.848 384.389 421.286 384.273 421.34 389.96 418.465 389.819 418.544 395.131 415.294 395.009 415.375 399.884 411.875 399.748 411.981 404.123 408.231 403.988 408.358 407.863 404.358 407.729 404.512 410.979 400.387 410.853 400.567 413.54 396.255 413.341 396.678 414.544 393.083ZM410.138 394.246 418.8 384 421.799 397.077ZM282.649 469.754 273.987 480 270.988 466.923Z" fill="#4472C4"/><path d="M10-2 17.6327-2 25.7654-1.93744 25.75-1.9375 33.0102-1.9375 39.1454-1.8749 39.125-1.875 41.7161-1.875 43.9321-1.81168 43.875-1.8125 45.625-1.8125 47.0143-1.8125 47.9034-1.74411 47.75-1.75 48-1.75 48.25-1.75 49.1101-1.75 50.4701-1.68524 50.375-1.6875 52.125-1.6875 54.3125-1.6875 56.8852-1.6875 63.0204-1.6249 63-1.625 70.2577-1.625 78.3904-1.56244 78.375-1.5625 86-1.5625 86 2.4375 78.3673 2.4375 70.2346 2.37494 70.25 2.375 62.9898 2.375 56.8546 2.3124 56.875 2.3125 54.3125 2.3125 52.125 2.3125 50.3274 2.3125 48.9674 2.24774 49.0625 2.25 48.25 2.25 48 2.25 47.6732 2.25 46.7841 2.18161 46.9375 2.1875 45.625 2.1875 43.8464 2.1875 41.6304 2.12418 41.6875 2.125 39.1148 2.125 32.9796 2.0624 33 2.0625 25.7423 2.0625 17.6096 1.99994 17.625 2 10 2ZM12 6 0 0 12-6ZM84-5.5625 96 0.4375 84 6.4375Z" fill="#4472C4" transform="matrix(1.83697e-16 1 1 -1.83697e-16 562 528)"/><path d="M10.0116-1.98161 17.6366-1.93747 17.625-1.9375 25.7586-1.9375 33.0172-1.87493 39.1596-1.81225 41.7405-1.7493 43.9321-1.68668 43.875-1.6875 45.6726-1.6875 47.0326-1.62274 46.9375-1.625 47.9962-1.625 48.4851-1.50278 48.7351-1.44028 48.25-1.5 49.1101-1.5 50.4701-1.43524 50.375-1.4375 52.1536-1.4375 54.3696-1.37418 54.3125-1.375 56.8852-1.375 63.0204-1.3124 70.2672-1.24993 70.25-1.25 78.3808-1.25 86.0116-1.20583 85.9884 2.79411 78.3634 2.74997 78.375 2.75 70.2414 2.75 62.9796 2.6874 56.8546 2.6249 56.875 2.625 54.2839 2.625 52.0679 2.56168 52.125 2.5625 50.3274 2.5625 48.9674 2.49774 49.0625 2.5 48.0038 2.5 47.5149 2.37778 47.2649 2.31528 47.75 2.375 46.8899 2.375 45.5299 2.31024 45.625 2.3125 43.8464 2.3125 41.6304 2.24918 41.6387 2.24941 39.0762 2.18691 39.1046 2.1874 32.9828 2.12493 25.7328 2.06243 25.75 2.0625 17.6192 2.0625 9.98841 2.01833ZM11.989 6.02202 0 0 12.011-5.97796ZM84.011-5.20952 96 0.8125 83.989 6.79046Z" fill="#4472C4" transform="matrix(1.83697e-16 1 1 -1.83697e-16 274 528)"/><path d="M10.3525 0.462758 14.1604 1.73724 18.768 4.54184 23.0617 7.92479 27.2029 11.8718 31.0705 16.3841 34.6613 21.3214 37.9936 26.7044 40.9355 32.4602 43.5506 38.5196 45.7854 44.841 47.5728 51.416 48.9137 58.1203 49.7455 64.9668 49.9986 71.7378 50.2486 78.4885 50.2351 78.319 51.0476 84.944 51.0244 84.7988 52.3369 91.4238 52.3036 91.2831 54.0536 97.6581 54.0106 97.5209 56.1981 103.708 56.1488 103.582 58.7113 109.52 58.6559 109.402 61.5309 115.027 61.4505 114.885 64.7005 120.135 64.6175 120.011 68.1175 124.824 68.0185 124.698 71.7685 129.073 71.6299 128.927 75.6299 132.74 75.4877 132.617 79.6127 135.867 79.4149 135.729 83.7274 138.354 83.3223 138.166 86.9171 139.369 85.6475 143.162 81.8396 141.888 77.232 139.083 72.9383 135.7 68.7971 131.753 64.9295 127.241 61.3387 122.304 58.0064 116.921 55.0645 111.165 52.4494 105.105 50.2154 98.7863 48.4272 92.2721 47.0863 85.504 46.2545 78.7215 46.0014 71.8872 45.7514 65.1997 45.7646 65.3662 44.9521 58.6787 44.9763 58.8297 43.6638 52.2672 43.695 52.3996 41.945 45.9621 41.9894 46.1041 39.8019 39.9166 39.8512 40.0425 37.2887 34.105 37.3441 34.2227 34.4691 28.5977 34.5495 28.7402 31.2995 23.4902 31.3825 23.6138 27.8825 18.8013 27.9815 18.9266 24.2315 14.5516 24.3701 14.6977 20.3701 10.8852 20.5123 11.0085 16.3873 7.75848 16.5851 7.8959 12.2726 5.2709 12.6777 5.45909 9.08292 4.25594ZM10.2456 8.66183 0 0 13.0768-2.99939ZM85.7544 134.963 96 143.625 82.9232 146.624Z" fill="#4472C4" transform="matrix(1.83697e-16 1 1 -1.83697e-16 419 384)"/><path d="M347.5 200.5C347.5 196.082 351.082 192.5 355.5 192.5L483.5 192.5C487.918 192.5 491.5 196.082 491.5 200.5L491.5 232.5C491.5 236.918 487.918 240.5 483.5 240.5L355.5 240.5C351.082 240.5 347.5 236.918 347.5 232.5Z" stroke="#0D0D0D" stroke-width="1.33333" stroke-miterlimit="8" fill="#99FFCC" fill-rule="evenodd"/><text font-family="Calibri,Calibri_MSFontService,sans-serif" font-weight="400" font-size="24" transform="translate(379.013 212)">gateway<tspan font-size="19" x="-3.54666" y="24">10.0.0.0/15</tspan></text><path d="M421.467 250 421.467 257.633 421.404 265.765 421.404 265.75 421.404 273.01 421.342 279.145 421.342 279.125 421.342 281.716 421.278 283.932 421.279 283.875 421.279 285.625 421.279 287.014 421.211 287.903 421.217 287.75 421.217 288 421.217 288.327 421.148 289.216 421.154 289.062 421.154 290.375 421.154 292.154 421.091 294.37 421.092 294.312 421.092 296.885 421.029 303.02 421.029 303 421.029 310.258 420.967 318.39 420.967 318.375 420.967 326 416.967 326 416.967 318.367 417.029 310.235 417.029 310.25 417.029 302.99 417.092 296.855 417.092 296.875 417.092 294.284 417.155 292.068 417.154 292.125 417.154 290.375 417.154 288.986 417.223 288.097 417.217 288.25 417.217 288 417.217 287.673 417.285 286.784 417.279 286.937 417.279 285.625 417.279 283.846 417.343 281.63 417.342 281.687 417.342 279.115 417.404 272.98 417.404 273 417.404 265.742 417.467 257.61 417.467 257.625 417.467 250ZM413.467 252 419.467 240 425.467 252ZM424.967 324 418.967 336 412.967 324Z" fill="#4472C4"/><path d="M828.5 344.5C828.5 340.082 832.082 336.5 836.5 336.5L964.5 336.5C968.918 336.5 972.5 340.082 972.5 344.5L972.5 376.5C972.5 380.918 968.918 384.5 964.5 384.5L836.5 384.5C832.082 384.5 828.5 380.918 828.5 376.5Z" stroke="#0D0D0D" stroke-width="1.33333" stroke-miterlimit="8" fill="#FFCCCC" fill-rule="evenodd"/><text font-family="Calibri,Calibri_MSFontService,sans-serif" font-weight="400" font-size="24" transform="translate(863.24 368)">router3</text><path d="M832.5 632.5C832.5 628.082 836.082 624.5 840.5 624.5L968.5 624.5C972.918 624.5 976.5 628.082 976.5 632.5L976.5 664.5C976.5 668.918 972.918 672.5 968.5 672.5L840.5 672.5C836.082 672.5 832.5 668.918 832.5 664.5Z" stroke="#0D0D0D" stroke-width="1.33333" stroke-miterlimit="8" fill="#FFCCCC" fill-rule="evenodd"/><text font-family="Calibri,Calibri_MSFontService,sans-serif" font-weight="400" font-size="24" transform="translate(867.507 656)">server3</text><path d="M902 383.967 905.833 613.968 901.834 614.034 898 384.033ZM909.799 611.902 904 624 897.801 612.102Z" fill="#FF0000"/><path d="M0.0331446-1.99973 11.384-1.81159 22.8309-1.18263 34.1536-0.17618 45.4251 1.27212 67.6589 5.16617 89.4088 10.4465 110.407 16.9848 130.529 24.7193 149.588 33.5256 167.386 43.2732 175.773 48.5077 183.774 53.8626 191.409 59.4779 198.601 65.2824 205.353 71.2141 211.676 77.2842 217.503 83.5546 222.764 89.8929 227.523 96.365 231.782 102.977 235.419 109.612 238.422 116.384 240.854 123.232 242.589 130.108 243.617 137.048 244.002 143.986 243.432 157.662 241.788 171.197 239.071 184.468 235.471 197.479 230.985 210.05 225.74 222.058 219.671 233.5 213.029 244.128 205.747 253.942 198.007 262.824 189.738 270.647 181.129 277.28 172.164 282.659 162.951 286.625 158.221 288.137 154.26 288.797 153.602 284.852 157.421 284.215 157.141 284.282 161.641 282.845 161.459 282.913 170.459 279.038 170.221 279.16 178.971 273.91 178.779 274.041 187.217 267.541 187.063 267.672 195.188 259.985 195.055 260.124 202.68 251.374 202.581 251.496 209.769 241.808 209.679 241.94 216.241 231.44 216.171 231.563 222.171 220.25 222.105 220.387 227.292 208.512 227.241 208.64 231.679 196.203 231.635 196.342 235.197 183.467 235.166 183.599 237.853 170.474 237.827 170.634 239.452 157.259 239.439 157.417 240.002 143.917 240.003 144.111 239.628 137.361 239.647 137.543 238.647 130.793 238.686 130.989 236.998 124.302 237.053 124.482 234.678 117.794 234.734 117.936 231.797 111.311 231.871 111.461 228.309 104.961 228.381 105.083 224.194 98.5831 224.264 98.6848 219.576 92.3098 219.649 92.4023 214.461 86.1523 214.535 86.2365 208.785 80.049 208.865 80.1303 202.615 74.1303 202.68 74.19 195.993 68.315 196.056 68.3689 188.931 62.6189 189.002 62.6736 181.44 57.1111 181.513 57.1621 173.575 51.8496 173.629 51.8842 165.316 46.6967 165.414 46.7541 147.727 37.0666 147.849 37.1281 128.911 28.3781 129.032 28.4293 109.032 20.7418 109.155 20.7846 88.2804 14.2846 88.4032 14.3185 66.7782 9.06854 66.905 9.09501 44.78 5.22001 44.8701 5.23369 33.6826 3.79619 33.7604 3.80465 22.5104 2.80465 22.5778 2.80949 11.2028 2.18449 11.2794 2.18723-0.0331446 1.99973ZM156.622 292.548 144 288 155.211 280.631Z" fill="#FF0000" transform="matrix(-1 1.22465e-16 1.22465e-16 1 347 360)"/><text font-family="Calibri,Calibri_MSFontService,sans-serif" font-weight="400" font-size="19" transform="translate(703.633 316)">10.1.1.1<tspan font-size="19" x="-658.033" y="153">10.0.0.1</tspan><tspan font-size="24" x="-658.033" y="59">Demo Step 1</tspan><tspan font-size="24" x="-67.6001" y="-88">Demo Step 2</tspan><tspan font-size="24" x="223.133" y="191">Demo </tspan><tspan font-size="24" x="287.3" y="191">Step 3</tspan></text></g></svg>